<svg xmlns="http://www.w3.org/2000/svg" viewBox="0 0 536.97 557.69"><defs><style>.cls-1{fill:#211915;stroke:#211915;stroke-miterlimit:22.93;stroke-width:0.22px;}.cls-2{fill:#bf0811;fill-rule:evenodd;}</style></defs><title>Ativo 1</title><g id="Camada_2" data-name="Camada 2"><g id="Camada_1-2" data-name="Camada 1"><path class="cls-1" d="M248.12,5.23c4.11.47,7.68-2.86,11.84-1.32.85.93,1.63,2.17,3.1,2.18,1.34.39,3.22,0,4,1.36l.44,1.92a23.13,23.13,0,0,1-4.42,1.68c-3.93,1.06-7.6,3-11.69,3.48-2,.32-4.3.15-5.8,1.73a152.55,152.55,0,0,1,23.32.06,14.93,14.93,0,0,1-1.26-2.15c2.24-2.7,6.07-3.37,9.08-5,6.06-2.5,12.9-4.55,19.53-3.13,1.26,4.14,6.38,3.58,9.88,4.4,3.18.69,4.34,3.74,6.19,5.89,3.17,2.59,6.94,4.43,10.28,6.82a123.81,123.81,0,0,1,16.23,15c3.35,3.79,7,7.6,8.71,12.35.74,1.93.65,4.19,2.05,5.85a52.26,52.26,0,0,1,5.26,6.91c5.17,8.54,6.52,18.67,6,28.37-.62,13.45-1.61,26.88-3.37,40.24a48.54,48.54,0,0,1-2.35,8.93c4,1.94,2.66,7.91,1.87,11.48-.84,3.35-.05,6.9-1.42,10.15-1.3-1.53-.54-3.48-.39-5.22.29-2.33.86-4.8,0-7.08a55.55,55.55,0,0,0-2.79-4.86c-1,1.63-3,3-2.66,5.14.35,3.75-.37,7.6.88,11.24.82,2.53,1.37,5.54-.32,7.88-1.25,1.79-3.4,3.85-2,6.16.66,2.81,4.23,1.83,6.32,1.35-.08,3.11-1.19,6.17-5.52,5.15-1.19,0-2.59-.75-3.61.12a13.62,13.62,0,0,0-1,4c-1.27,7.83-4.13,15.3-6.33,22.91A216.85,216.85,0,0,0,332,247.86a52.79,52.79,0,0,1-3.58,13.54c-6.13,15.94-19.51,28-33.37,38.12,0,.47.14,1.4.18,1.87,2.61-.31,5.48-1.19,7.89.26a40.45,40.45,0,0,1,10,8.69c6.39,6.94,10.69,15.31,14.8,23.58,2,3.64,4.25,7.35,4.36,11.59-3.21-.71-4.89-3.53-6-6.22-3.28-7.11-10.4-12.83-18.72-13.4-2.75,2.44-2.29,6.29-3.18,9.48-.3,1.72-1.68,2.95-2.88,4.15,1.84,8.42,7,15.69,10.13,23.67,1.25,3,1.75,6.27,2.63,9.41H104.18V303.24c5.1-1.62,10.28-3.06,15.12-5.33,13.75-6.19,27.64-12.09,41.25-18.57A30.42,30.42,0,0,0,171,270.76a118.45,118.45,0,0,0,14.09-22c1.91-3.83,4.69-8,9.3-9.07,1.34-2.63.13-5.49-.09-8.22-.68-4-.35-8-1-11.92-.26-2-.8-4-.95-6-.28-1.55,1.23-2.55,2.15-3.61-.3-3.17-3.08-5.41-3.9-8.43-1.3-4.87-1.36-10.13-4.08-14.58-2.44.93-4.54,3.11-7.37,2.73a9.33,9.33,0,0,1-7.63-5.62,7.24,7.24,0,0,1,5.16,1.49c1.32,1,3,.59,4.52.34,1-2.41,2.7-4.9,2.22-7.6s-3.91-3.54-4.33-6.21c-.12-2.63,2.14-4.81,1.82-7.47s-.94-5.43-1.12-8.19c-1.88,2.63-1.67,5.78-1.93,8.79,0,2.68-3.94,3.12-5.54,1.45-.31-1.73,1.19-3.12,1.23-4.78-1.19-2.15-3.31-3.69-4.62-5.77-2-4-1.43-8.37-1.12-12.57.37-4-1.24-7.83-2.45-11.6-1.77-6.21-3.53-12.43-5.13-18.68-2.32-9.74-2-19.83-.77-29.69a78.68,78.68,0,0,1,14.73-33.76,141.56,141.56,0,0,1,24.15-25.4c1.54-1.24,3.46-3.33,5.69-2.22.06.23.2.69.27.93a31.22,31.22,0,0,1,15.63-9.33c2.9-.62,4.24-3.81,7.28-4.14,7-1.29,13.69-4.39,21-4.39Zm-7,5h0l.09,2.86,1.62-.73a19,19,0,0,0,4.71.08c.06-1,1.1-2.78-.18-3.28-2.09.29-4.27.24-6.24,1.07Zm20.38,13.08h0c-.07.28-.19.83-.26,1.11,3.81.08,7.19-1.82,10.24-3.79-3.52-.38-7.64-.28-10,2.68Zm2.86,7.55h0c4.09,2.2,8.9,1.19,13.24.37-4.29-1-9-2-13.24-.37ZM217.3,48h0c-6.59,2.62-13,5.83-18.39,10.33-2,1.85-4.08,3.74-5.32,6.16-1.89,3.35-2.4,7.23-2.49,11-.25,2.33,2.21,3.64,3,5.63,2.11,6.86,2.5,14,3.4,21.08-.57,1.6-1.83,2.81-2.68,4.25-.09,1.37,1,2.45,1.58,3.63,0-2.18.17-4.72,2.22-6.11,3.62-2.73,4.87-7.21,7.17-10.78,2.56-3,7-2.41,10.55-2,2.78.21,4.91,2.41,7.75,2.39,5.54,0,10.65-3,16.24-2.44,7.22.43,13.42,4.4,19.34,8a13.61,13.61,0,0,1,3.88,8.51c.1,2.48,0,5-.11,7.43,0,3.18-3,5.84-6.24,6.24-1.42.07-2.2-1.17-3.3-1.78-2.48-1.47-5.12.74-7.75.35-3.5-.08-5.83-3-7.79-5.38-1.2,2.21-2.56,4.51-4.85,5.86-2.82,1.77-6.26,2.11-9.53,2.43a29.42,29.42,0,0,0,6.6.86c2.43.07,4.76-.74,7.18-.81.21.41.61,1.2.81,1.61-.58.65-1,1.49-1.89,1.84-7.27,2.55-14.72,4.83-22.45,5.65-1.78.37-3.07-1-3.83-2.29-2.64-.7-5.56-.65-7.9-2.18a19,19,0,0,1-7.61-7.71c-.78-1.75-2-4-.3-5.63-1.06-.2-2.14-.28-3.2-.42,0,3-3.06,4.69-3.68,7.47-.9,3.27,0,6.65-.47,10a8.06,8.06,0,0,0,0,3.17,6.07,6.07,0,0,1,4.48,3.35c1.47,1.67,1.08,3.88,1.2,5.89,1.44,2.29,3.29,4.38,4.18,6.94,2.12,6.2,1.86,12.82,2.57,19.23.67,3.47,2.92,6.38,4.12,9.68.6,1.4.94,3.12,2.52,3.85,7.26,4.08,16.5,6.61,20.6,14.26l2.46,4.06c1.28,1,3.06,1.18,4.55,1.85,1.53,4.95,1.7,11,6.36,14.43,3.95,2.36,8.56,3.44,13,4.67,1.94.38,3-1.59,4.62-2,4.51.23,9.15,1.44,13.61.18,3-.79,4.57-4.15,7.87-4.12,2.52.15,4.19,2.11,6.15,3.38,2.34,1.57,5.31,1.72,8.07,1.93,4.28.25,8.86.64,12.82-1.25,3-1.15,4.45-4.06,6.31-6.35,1.8-1.62,4.6-2.49,5.25-5,1-2.43-.91-4.77-.55-7.23,2.19-.25,4.8.54,6.5-1.19,3.59-3.07,2.54-8.38,5.35-11.9,1.6-1.64,4-1.91,6.27-1.95A70.41,70.41,0,0,0,339,177c1-4,3.5-7.59,3.71-11.78.29-6,0-11.93.42-17.89.19-4,3-7.25,3.38-11.2.58-2.92-.47-5.8-1-8.64-1.47-6.06-2.48-12.3-5.2-18,1.07,3.84-.31,7.91-2.39,11.22-2.25,3-6.36,3-9.61,4.31a12.52,12.52,0,0,0-4.67,3.45c-6.8-2-13.91-2.64-20.76-4.4a5.55,5.55,0,0,1-3.58-2.74l.76-1.55a6.26,6.26,0,0,1,4.16-.2c4.28.59,9.13,1.9,13.05-.56-3.22-1.31-6.61.42-9.9,0-2.41-.69-4.62-2.05-7.19-2.16-3.35-.34-6.42,1.32-9.72,1.48a26.77,26.77,0,0,0-5.89,1.12c-1.74-.06-2.61-1.81-3.25-3.11a36.63,36.63,0,0,1-2.2-15.33,6.35,6.35,0,0,1,1.57-4.19,74.26,74.26,0,0,1,11-4.39c3.26-1,6.63.35,9.94-.17,7.73-1,15.63-2.63,23.42-1.13,2.93.39,5.63,1.58,8.38,2.55l2.34-.5c-2.3-4.54,1-9.31,0-14-2.13-9-9.74-16-18.21-20-4.57-2-9.77-1.89-14.37-3.75-2.54-1.36-5.09-3.09-8.13-3.17-10.71-.67-21.65-.35-32.09-3.11-6.69-2.08-13.8-2.32-20.72-3.27-4.53-.54-9-1.94-13.59-1.54-4.07.27-7.67,2.25-11.34,3.74Zm59.57,175.5h0c.12.65.25,1.3.38,2,1.68.24,3.71-.39,3.35-2.41a9,9,0,0,0-3.73.45Zm-54,37.09c2.56,1.95,5.63,3.72,9,3.65.24-.29.7-.88.93-1.18-1.83-3.95-3.77-8.44-8.15-10.39-2-.83-5.54-.83-5.11-4.41-.59,3.05.19,10.71,3.31,12.33Zm-25.64,1.52c.73,2.58,2.45,4.75,3.59,7.16,2.4,4.88,5.78,9.21,8.6,13.86,10,15.49,20.2,30.83,30.28,46.27,4.7,6.85,25.88,41.78,27.62,43.19a173.34,173.34,0,0,1,4.87-29c.5-2.2,1.23-5-.81-6.69-2.79-2.54-7-2.3-10.55-2.46-1.42.09-3-1.15-2.05-2.53,2.19-4.78,4.93-9.32,7.49-13.93,1.66-2.71,3.55-6.14,7.19-6.58a19.65,19.65,0,0,1,11.65,3.14c2.56,1.59,5.69,2,8.65,2.52,1.27-.21,3.06-1.14,2.46-2.64a27.47,27.47,0,0,0-4.69-4.83c-4.38-3.37-10.29-3.34-15.43-5,1.54-1.34,3.66-1.7,5.44-2.67-7.08-2.74-12.34-8.4-19.39-11.17a14.67,14.67,0,0,1-3.12-2.15c-5-3.91-10.86-6.51-16.79-8.76a115.6,115.6,0,0,1-33.44-18.48c-3.82-3.11-6.75-7-9.7-10.83a14.16,14.16,0,0,0-1.87,11.58Zm83.36,87.69h0c-1.22,1.3-2.55,2.72-2.69,4.55-.21,2.57-.09,5.3-1.56,7.58,2-.15,4.72.32,5.75-1.83,1-3.45-.13-7.09-1.5-10.3Z"/><path class="cls-1" d="M258.32,135.82a5.62,5.62,0,0,1,3.69.09,10,10,0,0,1,.6,5.26c-.38.14-1,1.26-1.33,1.4-.69-.2-1.53-1.25-2.21-1.44a8.41,8.41,0,0,1-.75-5.31Z"/><path class="cls-1" d="M278.82,149.25c3.58-.56,5.22-4.07,8.36-5.38,2.62.65,1.71,3.48,2.65,5.29.66,2.08,3.24,2.6,4.42,4.27,1.08,4.72-1.7,9.81-6.17,12-2.17,1.17-4.7,1.57-6.85,2.78-1.94,1-2.69,3.51-5,4-1.38.08-2.92.23-4.11-.59-5.3-3.3-12.16-3.88-16.81-8.2a7.45,7.45,0,0,1-1.86-9.17c1.08-2.09,3.95-2,5.6-3.44,1.41-1.67,1.13-4.29,3.09-5.59,6.2-1.58,10.53,5.57,16.7,4.09Z"/><path class="cls-1" d="M289.1,180c6-.78,12.63-3.25,18.26,0,2.33,1.92,5.82,1.55,8,3.63s2.76,5,3.31,7.68c.35,2.16,1.24,4.44.17,6.54-2.72.67-5.24-.7-7.7-1.63-2.81-1-4.38-3.63-6.54-5.46l-.19-.14c-5.07-3.25-11.36-4.14-17.35-3.55-9.54.91-19.33.47-28.59,3.2a20.3,20.3,0,0,0-8.27,4.23,59.43,59.43,0,0,1-11.86,8c-2,.54-3.56-1.29-4.56-2.67a21.15,21.15,0,0,1-2.76-11.74c1-1.37,3.15-1.46,4.51-2.51,3.66-2.51,7-6.43,11.9-6.3,4.3-.5,8,2.94,12.34,1.77A26.2,26.2,0,0,1,271,179.77c2.67.21,5.09,1.9,7.85,1.39,1.38-.2,2.51-1.17,3.89-1.34,2.12.2,4.25.67,6.37.16Z"/><path class="cls-1" d="M262.4,196.85c6.39-.08,12.49-2.62,18.91-2.16a91.36,91.36,0,0,1,12.4,2.16c1,.06,1.63.88,2.21,1.59-.19,1.35.1,2.86-.72,4.07-.55,1-1.84.84-2.81.91-3.32-.07-6.59-.61-9.88-.91-7.45-1.29-14.94,2.41-22.33.27-1.67-.62-3.85-.77-4.93-2.29-.37-1.36,0-3.54,1.87-3.66s3.52.12,5.28,0Z"/><path class="cls-1" d="M332.48,267.41a52.09,52.09,0,0,1,3.56,4.28c2.8,4,6.7,7.61,11.69,8.85,8.37,2.17,16.48,5.13,24.59,8,7.46,2.89,15.21,5.06,22.58,8.16,11.78,4.58,23.14,10.09,34.91,14.67V372.6H344.39c-.6-12.45-2.23-24.82-3.5-37.2-.86-9.11-1.56-18.23-2.83-27.29-1-7-2.63-13.92-3.84-20.89-1.13-6.55-1.3-13.2-1.74-19.81Z"/><path class="cls-1" d="M104.71,385.63h14.45a39.48,39.48,0,0,1,10.39,1,10.22,10.22,0,0,1,5.69,4.1q2.17,3.11,2.17,10,0,4.65-1.53,6.48c-1,1.23-3,2.16-6.06,2.82,3.36.73,5.65,1.93,6.85,3.59s1.8,4.24,1.8,7.71v4.92c0,3.6-.44,6.25-1.3,8a6.87,6.87,0,0,1-4.11,3.55q-2.82,1-11.58,1H104.71v-53.1Zm14.55,9.06v11.82c.61,0,1.08,0,1.42,0,1.39,0,2.29-.33,2.66-1s.58-2.59.58-5.73a9,9,0,0,0-.47-3.5,2.3,2.3,0,0,0-1.24-1.27,11.41,11.41,0,0,0-2.95-.29Zm0,20.07v14.91c2-.07,3.28-.37,3.84-.92s.82-1.9.82-4.05v-5c0-2.28-.25-3.66-.74-4.15s-1.8-.75-3.92-.82Zm57.57,2a108.08,108.08,0,0,1-.4,11.33,12.34,12.34,0,0,1-2.47,6.08,13.27,13.27,0,0,1-5.64,4.23,21.31,21.31,0,0,1-8.27,1.48,21.81,21.81,0,0,1-8-1.4,13.1,13.1,0,0,1-5.74-4.17,12.45,12.45,0,0,1-2.59-6.07,108.72,108.72,0,0,1-.41-11.48v-9.08a107.72,107.72,0,0,1,.4-11.32,12.28,12.28,0,0,1,2.47-6.09,13.44,13.44,0,0,1,5.64-4.23,21.48,21.48,0,0,1,8.26-1.48,21.87,21.87,0,0,1,8,1.4,13.12,13.12,0,0,1,5.74,4.18,12.41,12.41,0,0,1,2.59,6.06,108.72,108.72,0,0,1,.41,11.48v9.08Zm-14.55-17.44a16.05,16.05,0,0,0-.42-4.73,1.7,1.7,0,0,0-1.73-1,2,2,0,0,0-1.71.84c-.39.55-.59,2.19-.59,4.92v24.78a23.54,23.54,0,0,0,.39,5.7,1.68,1.68,0,0,0,1.8,1.08,1.75,1.75,0,0,0,1.86-1.24,25.62,25.62,0,0,0,.4-5.93V399.31Zm34.56-13.68v42.49h8.75v10.61h-23.3v-53.1Zm42.55,16.11H225.9v-3.93a7.45,7.45,0,0,0-.52-3.51,1.92,1.92,0,0,0-1.71-.75,2.2,2.2,0,0,0-2,1,5.56,5.56,0,0,0-.67,3.06,8.3,8.3,0,0,0,.76,4c.49.88,1.86,2,4.11,3.24q9.66,5.49,12.17,9t2.52,11.3q0,5.67-1.4,8.37c-.93,1.79-2.72,3.29-5.39,4.5a22.11,22.11,0,0,1-9.3,1.82,21.73,21.73,0,0,1-9.95-2.1,10.59,10.59,0,0,1-5.39-5.34,26.28,26.28,0,0,1-1.27-9.22v-3.48h13.49v6.46a8.26,8.26,0,0,0,.56,3.83,2.24,2.24,0,0,0,2,.85,2.37,2.37,0,0,0,2.15-1.08,5.9,5.9,0,0,0,.71-3.2c0-3.12-.45-5.17-1.35-6.12a44.21,44.21,0,0,0-6.79-4.83,66.74,66.74,0,0,1-7.15-5,11.5,11.5,0,0,1-2.91-4.26,18,18,0,0,1-1.15-6.95c0-4.06.54-7,1.63-8.92a10.93,10.93,0,0,1,5.29-4.41,22,22,0,0,1,8.81-1.59,24.16,24.16,0,0,1,9.63,1.74q4,1.74,5.26,4.38c.86,1.76,1.3,4.75,1.3,9v2.1Zm38.92,15a108.08,108.08,0,0,1-.4,11.33,12.25,12.25,0,0,1-2.47,6.08,13.21,13.21,0,0,1-5.64,4.23,21.26,21.26,0,0,1-8.26,1.48,21.9,21.9,0,0,1-8-1.4,13,13,0,0,1-5.73-4.17,12.26,12.26,0,0,1-2.59-6.07,108.72,108.72,0,0,1-.41-11.48v-9.08a107.72,107.72,0,0,1,.4-11.32,12.28,12.28,0,0,1,2.47-6.09,13.37,13.37,0,0,1,5.64-4.23,21.44,21.44,0,0,1,8.26-1.48,21.9,21.9,0,0,1,8,1.4,13.08,13.08,0,0,1,5.73,4.18,12.23,12.23,0,0,1,2.59,6.06,108.72,108.72,0,0,1,.41,11.48v9.08Zm-14.55-17.44a16.05,16.05,0,0,0-.42-4.73,1.69,1.69,0,0,0-1.73-1,2,2,0,0,0-1.71.84c-.39.55-.59,2.19-.59,4.92v24.78a23.54,23.54,0,0,0,.39,5.7,1.68,1.68,0,0,0,1.8,1.08,1.74,1.74,0,0,0,1.86-1.24,25.62,25.62,0,0,0,.4-5.93V399.31Zm52.43-13.68v53.1H303.48l-7.56-24.15v24.15H283.77v-53.1h12.15L304,409.54V385.63Zm30.89,0,8.31,53.1H340.54l-.79-9.53h-5.23l-.79,9.53h-15l7.37-53.1Zm-7.71,34.17q-1-9-2.21-22.37-2.15,15.31-2.73,22.37Zm18.51-34.17h10.28q10.27,0,13.91.75a9.6,9.6,0,0,1,5.93,3.86q2.29,3.09,2.3,9.88,0,6.19-1.63,8.32T382.29,411c2.87.69,4.82,1.59,5.81,2.73a7.85,7.85,0,0,1,1.83,3.14,45.59,45.59,0,0,1,.37,7.85v14H376.81V421.06c0-2.84-.24-4.6-.71-5.28s-1.68-1-3.67-1v24H357.88v-53.1Zm14.55,9.06v11.82a6.61,6.61,0,0,0,3.4-.64c.65-.43,1-1.81,1-4.15V398.8c0-1.69-.32-2.8-.94-3.33a5.59,5.59,0,0,0-3.44-.78ZM429,416.75a108.08,108.08,0,0,1-.4,11.33,12.25,12.25,0,0,1-2.47,6.08,13.21,13.21,0,0,1-5.64,4.23,21.26,21.26,0,0,1-8.26,1.48,21.9,21.9,0,0,1-8-1.4,13,13,0,0,1-5.73-4.17,12.26,12.26,0,0,1-2.59-6.07,108.72,108.72,0,0,1-.41-11.48v-9.08a107.72,107.72,0,0,1,.4-11.32,12.28,12.28,0,0,1,2.47-6.09A13.37,13.37,0,0,1,404,386a21.44,21.44,0,0,1,8.26-1.48,21.9,21.9,0,0,1,8,1.4,13,13,0,0,1,5.73,4.18,12.23,12.23,0,0,1,2.59,6.06,108.72,108.72,0,0,1,.41,11.48v9.08Zm-14.55-17.44a16.05,16.05,0,0,0-.42-4.73,1.69,1.69,0,0,0-1.73-1,2,2,0,0,0-1.71.84c-.38.55-.58,2.19-.58,4.92v24.78a24.33,24.33,0,0,0,.38,5.7,1.68,1.68,0,0,0,1.8,1.08,1.74,1.74,0,0,0,1.86-1.24,25,25,0,0,0,.4-5.93V399.31ZM104.71,447.86h14.63a35.52,35.52,0,0,1,9.12.89,10.4,10.4,0,0,1,4.79,2.55,8.78,8.78,0,0,1,2.18,4.05,34.5,34.5,0,0,1,.57,7.36v4.62q0,5.07-1.11,7.4a7.4,7.4,0,0,1-4,3.58,20.22,20.22,0,0,1-7.7,1.24h-3.89V501H104.71v-53.1Zm14.55,9.07v13.52c.41,0,.76,0,1.06,0a3.42,3.42,0,0,0,2.76-.94c.51-.62.77-1.92.77-3.89v-4.37c0-1.81-.3-3-.9-3.55s-1.82-.81-3.69-.81Zm21.08-9.07h10.27q10.27,0,13.91.75a9.64,9.64,0,0,1,5.94,3.86q2.29,3.09,2.29,9.88,0,6.19-1.62,8.33t-6.38,2.55c2.87.68,4.81,1.59,5.8,2.73a7.92,7.92,0,0,1,1.84,3.13,47.31,47.31,0,0,1,.36,7.85v14H159.26V483.3c0-2.85-.23-4.6-.7-5.28s-1.69-1-3.68-1v24H140.34v-53.1Zm14.54,9.07v11.81a6.53,6.53,0,0,0,3.41-.64c.64-.42,1-1.81,1-4.15V461c0-1.69-.31-2.8-.94-3.32a5.5,5.5,0,0,0-3.44-.78Zm23.66-9.07h24.22v10.61h-9.67v10.14h9v10.07h-9v11.68h10.66V501H178.54v-53.1ZM238.78,464H225.29v-3.92a7.5,7.5,0,0,0-.52-3.52,1.9,1.9,0,0,0-1.7-.75,2.21,2.21,0,0,0-2,1,5.57,5.57,0,0,0-.67,3.07,8.34,8.34,0,0,0,.76,4c.5.89,1.86,2,4.11,3.25q9.66,5.49,12.17,9t2.52,11.3c0,3.79-.47,6.57-1.4,8.37s-2.72,3.29-5.39,4.5a22.11,22.11,0,0,1-9.3,1.82,21.76,21.76,0,0,1-9.95-2.1,10.59,10.59,0,0,1-5.39-5.34,26.48,26.48,0,0,1-1.27-9.22V482h13.49v6.46q0,3,.57,3.84a2.21,2.21,0,0,0,2,.85A2.38,2.38,0,0,0,225.5,492a5.88,5.88,0,0,0,.71-3.2c0-3.12-.45-5.17-1.34-6.12a43.94,43.94,0,0,0-6.8-4.83,66.31,66.31,0,0,1-7.15-5,11.62,11.62,0,0,1-2.91-4.26,18.1,18.1,0,0,1-1.15-6.95q0-6.09,1.63-8.91a10.87,10.87,0,0,1,5.29-4.41,21.85,21.85,0,0,1,8.81-1.59,24.17,24.17,0,0,1,9.63,1.73c2.65,1.17,4.41,2.62,5.26,4.39s1.3,4.74,1.3,9V464Zm20.52-16.11V501H244.76v-53.1Zm6,0h10.87q10.5,0,14.21.92a11,11,0,0,1,5.64,3,9.35,9.35,0,0,1,2.41,4.67,67.2,67.2,0,0,1,.49,10.12v18.6c0,4.76-.24,7.95-.71,9.55a7.14,7.14,0,0,1-2.46,3.78,10.63,10.63,0,0,1-4.35,1.91,42.38,42.38,0,0,1-7.8.53h-18.3v-53.1Zm14.55,9.07v35c2.06,0,3.33-.4,3.8-1.2s.72-3,.72-6.52V463.53a26.79,26.79,0,0,0-.24-4.64,2.12,2.12,0,0,0-1.09-1.48,7.08,7.08,0,0,0-3.19-.48Zm24.66-9.07h24.22v10.61H319v10.14h9v10.07h-9v11.68H329.7V501H304.49v-53.1Zm61.93,0V501H353.71l-7.56-24.14V501H334v-53.1h12.15l8.12,23.91V447.86Zm35.24,0v10.61h-8.55V501H378.56V458.47H370V447.86Zm3.49,0h24.22v10.61H419.7v10.14h9v10.07h-9v11.68h10.66V501H405.15v-53.1Z"/></g></g></svg>