<svg xmlns="http://www.w3.org/2000/svg" viewBox="0 0 536.97 557.69"><defs><style>.cls-1{fill:#211915;stroke:#211915;stroke-miterlimit:22.93;stroke-width:0.22px;}.cls-2{fill:#bf0811;fill-rule:evenodd;}</style></defs><title>Ativo 1</title><g id="Camada_2" data-name="Camada 2"><g id="Camada_1-2" data-name="Camada 1"><path class="cls-2" d="M268.49,0C120.2,0,0,124.84,0,278.84S120.2,557.69,268.49,557.69,537,432.85,537,278.84,416.77,0,268.49,0ZM36.7,278.84A245.25,245.25,0,0,1,92.55,122.21l319.8,345.31c-39.53,32.56-89.49,52.05-143.86,52.05C140.48,519.57,36.7,411.8,36.7,278.84ZM444.42,435.47,124.62,90.18c39.53-32.56,89.49-52.06,143.87-52.06,128,0,231.78,107.78,231.78,240.72A245.15,245.15,0,0,1,444.42,435.47Z"/></g></g></svg>